<svg xmlns="http://www.w3.org/2000/svg" viewBox="0 0 32 32" fill="currentColor"><path d="M21,25C22.1,25,23,24.1,23,23L23,5C23,3.9,22.1,3,21,3L5,3C3.9,3,3,3.9,3,5L3,23C3,24.1,3.9,25,5,25ZM13,32C11.9,32,11,31.1,11,30L11,12C11,10.9,11.9,10,13,10L29,10C30.1,10,31,10.9,31,12L31,30C31,31.1,30.1,32,29,32Z"/><path d="M22.56,10L29,10C30.1,10,31,10.9,31,12L31,30C31,31.1,30.1,32,29,32L13,32C11.9,32,11,31.1,11,30L11,26" fill="none" stroke="currentColor" stroke-width="1" stroke-linecap="round" stroke-linejoin="round"/><path d="M8,14L18,14" fill="none" stroke="currentColor" stroke-width="1" stroke-linecap="round" stroke-linejoin="round"/><path d="M13,19L13,9" fill="none" stroke="currentColor" stroke-width="1" stroke-linecap="round" stroke-linejoin="round"/></svg>